<svg width="20" height="21" viewBox="0 0 20 21" fill="none" xmlns="http://www.w3.org/2000/svg">
<path fill-rule="evenodd" clip-rule="evenodd" d="M9.9995 19.1702L8.10061 19.9565L6.64717 18.5034L4.59191 18.5032L3.8052 16.6044L1.90647 15.8177L1.90626 13.7625L0.453125 12.309L1.23944 10.4101L0.453125 8.51125L1.90626 7.05781L1.90647 5.00256L3.8052 4.21585L4.59191 2.31712L6.64717 2.3169L8.10061 0.86377L9.9995 1.65008L11.8984 0.86377L13.3518 2.3169L15.4071 2.31712L16.1938 4.21585L18.0925 5.00256L18.0927 7.05781L19.5459 8.51125L18.7596 10.4101L19.5459 12.309L18.0927 13.7625L18.0925 15.8177L16.1938 16.6044L15.4071 18.5032L13.3518 18.5034L11.8984 19.9565L9.9995 19.1702Z" fill="#2AA7FF" stroke="#F0F0F5" stroke-linecap="round" stroke-linejoin="round"/>
<path d="M6.56082 10.5128C6.31635 10.2932 5.92 10.2932 5.67554 10.5128C5.43107 10.7324 5.43107 11.0885 5.67554 11.3082L8.59682 13.9326C8.84129 14.1523 9.23764 14.1523 9.4821 13.9326L15.3247 8.68369C15.5691 8.46406 15.5691 8.10798 15.3247 7.88835C15.0802 7.66873 14.6839 7.66873 14.4394 7.88835L9.03946 12.7396L6.56082 10.5128Z" fill="white" stroke="white" stroke-width="0.5"/>
</svg>
