<svg width="14" height="12" viewBox="0 0 14 12" fill="none" xmlns="http://www.w3.org/2000/svg">
<path d="M0.967367 4.74998H2.71737V11.75H0.967367C0.645203 11.75 0.384033 11.4888 0.384033 11.1667V5.33332C0.384033 5.01115 0.645203 4.74998 0.967367 4.74998ZM4.05489 3.9958L7.78852 0.262189C7.89112 0.159551 8.05364 0.148007 8.16972 0.235093L8.66707 0.6081C8.94982 0.820153 9.07722 1.18148 8.99001 1.52397L8.31725 4.16665H12.0507C12.695 4.16665 13.2174 4.68898 13.2174 5.33332V6.56084C13.2174 6.71327 13.1875 6.86417 13.1295 7.00505L11.3244 11.3887C11.2344 11.6073 11.0214 11.75 10.785 11.75H4.46737C4.1452 11.75 3.88403 11.4888 3.88403 11.1667V4.40828C3.88403 4.25357 3.94549 4.10519 4.05489 3.9958Z" fill="white"/>
</svg>
